<mxfile host="app.diagrams.net" modified="2024-01-27T09:00:22.002Z" agent="Mozilla/5.0 (Windows NT 10.0; Win64; x64) AppleWebKit/537.36 (KHTML, like Gecko) Chrome/120.0.0.0 Safari/537.36" etag="mloC2IMUUg0746I9pe3w" version="23.0.2" type="device">
  <diagram name="Page-1" id="e7e014a7-5840-1c2e-5031-d8a46d1fe8dd">
    <mxGraphModel dx="720" dy="422" grid="1" gridSize="10" guides="1" tooltips="1" connect="1" arrows="1" fold="1" page="1" pageScale="1" pageWidth="1169" pageHeight="826" background="none" math="0" shadow="0">
      <root>
        <mxCell id="0" />
        <mxCell id="1" parent="0" />
        <mxCell id="06taHDCgNB13A3YxsIw0-41" value="uÅ¾ivatel" style="shape=umlActor;verticalLabelPosition=bottom;verticalAlign=top;html=1;" vertex="1" parent="1">
          <mxGeometry x="90" y="260" width="30" height="60" as="geometry" />
        </mxCell>
        <mxCell id="06taHDCgNB13A3YxsIw0-44" value="Add teacher" style="ellipse;whiteSpace=wrap;html=1;" vertex="1" parent="1">
          <mxGeometry x="260" y="270" width="140" height="40" as="geometry" />
        </mxCell>
        <mxCell id="06taHDCgNB13A3YxsIw0-45" value="Add curse" style="ellipse;whiteSpace=wrap;html=1;" vertex="1" parent="1">
          <mxGeometry x="260" y="220" width="140" height="40" as="geometry" />
        </mxCell>
        <mxCell id="06taHDCgNB13A3YxsIw0-46" value="Add student" style="ellipse;whiteSpace=wrap;html=1;" vertex="1" parent="1">
          <mxGeometry x="260" y="170" width="140" height="40" as="geometry" />
        </mxCell>
        <mxCell id="06taHDCgNB13A3YxsIw0-47" value="edit student" style="ellipse;whiteSpace=wrap;html=1;" vertex="1" parent="1">
          <mxGeometry x="260" y="330" width="140" height="40" as="geometry" />
        </mxCell>
        <mxCell id="06taHDCgNB13A3YxsIw0-48" value="edit curse" style="ellipse;whiteSpace=wrap;html=1;" vertex="1" parent="1">
          <mxGeometry x="260" y="380" width="140" height="40" as="geometry" />
        </mxCell>
        <mxCell id="06taHDCgNB13A3YxsIw0-49" value="edit teacher" style="ellipse;whiteSpace=wrap;html=1;" vertex="1" parent="1">
          <mxGeometry x="260" y="430" width="140" height="40" as="geometry" />
        </mxCell>
        <mxCell id="06taHDCgNB13A3YxsIw0-50" value="display teachers" style="ellipse;whiteSpace=wrap;html=1;" vertex="1" parent="1">
          <mxGeometry x="445" y="270" width="140" height="40" as="geometry" />
        </mxCell>
        <mxCell id="06taHDCgNB13A3YxsIw0-51" value="display curses" style="ellipse;whiteSpace=wrap;html=1;" vertex="1" parent="1">
          <mxGeometry x="445" y="220" width="140" height="40" as="geometry" />
        </mxCell>
        <mxCell id="06taHDCgNB13A3YxsIw0-52" value="display students" style="ellipse;whiteSpace=wrap;html=1;" vertex="1" parent="1">
          <mxGeometry x="445" y="170" width="140" height="40" as="geometry" />
        </mxCell>
        <mxCell id="06taHDCgNB13A3YxsIw0-56" value="delete teacher" style="ellipse;whiteSpace=wrap;html=1;" vertex="1" parent="1">
          <mxGeometry x="450" y="430" width="140" height="40" as="geometry" />
        </mxCell>
        <mxCell id="06taHDCgNB13A3YxsIw0-57" value="delete curse" style="ellipse;whiteSpace=wrap;html=1;" vertex="1" parent="1">
          <mxGeometry x="450" y="380" width="140" height="40" as="geometry" />
        </mxCell>
        <mxCell id="06taHDCgNB13A3YxsIw0-58" value="delete student" style="ellipse;whiteSpace=wrap;html=1;" vertex="1" parent="1">
          <mxGeometry x="450" y="330" width="140" height="40" as="geometry" />
        </mxCell>
        <mxCell id="06taHDCgNB13A3YxsIw0-59" value="edit" style="shape=umlFrame;whiteSpace=wrap;html=1;pointerEvents=0;" vertex="1" parent="1">
          <mxGeometry x="240" y="320" width="180" height="160" as="geometry" />
        </mxCell>
        <mxCell id="06taHDCgNB13A3YxsIw0-60" value="add" style="shape=umlFrame;whiteSpace=wrap;html=1;pointerEvents=0;" vertex="1" parent="1">
          <mxGeometry x="240" y="160" width="180" height="160" as="geometry" />
        </mxCell>
        <mxCell id="06taHDCgNB13A3YxsIw0-61" value="display" style="shape=umlFrame;whiteSpace=wrap;html=1;pointerEvents=0;" vertex="1" parent="1">
          <mxGeometry x="420" y="160" width="180" height="160" as="geometry" />
        </mxCell>
        <mxCell id="06taHDCgNB13A3YxsIw0-62" value="delete" style="shape=umlFrame;whiteSpace=wrap;html=1;pointerEvents=0;" vertex="1" parent="1">
          <mxGeometry x="420" y="320" width="180" height="160" as="geometry" />
        </mxCell>
        <mxCell id="06taHDCgNB13A3YxsIw0-68" value="" style="endArrow=none;html=1;rounded=0;entryX=-0.007;entryY=0.074;entryDx=0;entryDy=0;entryPerimeter=0;" edge="1" parent="1" target="06taHDCgNB13A3YxsIw0-60">
          <mxGeometry width="50" height="50" relative="1" as="geometry">
            <mxPoint x="120" y="290" as="sourcePoint" />
            <mxPoint x="170" y="240" as="targetPoint" />
          </mxGeometry>
        </mxCell>
        <mxCell id="06taHDCgNB13A3YxsIw0-69" value="" style="endArrow=none;html=1;rounded=0;entryX=-0.02;entryY=0.085;entryDx=0;entryDy=0;entryPerimeter=0;" edge="1" parent="1" source="06taHDCgNB13A3YxsIw0-41" target="06taHDCgNB13A3YxsIw0-59">
          <mxGeometry width="50" height="50" relative="1" as="geometry">
            <mxPoint x="130" y="300" as="sourcePoint" />
            <mxPoint x="250" y="249" as="targetPoint" />
          </mxGeometry>
        </mxCell>
        <mxCell id="06taHDCgNB13A3YxsIw0-70" value="" style="endArrow=none;html=1;rounded=0;entryX=-0.002;entryY=0.022;entryDx=0;entryDy=0;entryPerimeter=0;" edge="1" parent="1" target="06taHDCgNB13A3YxsIw0-62">
          <mxGeometry width="50" height="50" relative="1" as="geometry">
            <mxPoint x="130" y="293" as="sourcePoint" />
            <mxPoint x="248" y="380" as="targetPoint" />
          </mxGeometry>
        </mxCell>
        <mxCell id="06taHDCgNB13A3YxsIw0-71" value="" style="endArrow=none;html=1;rounded=0;entryX=0.044;entryY=0.188;entryDx=0;entryDy=0;entryPerimeter=0;" edge="1" parent="1">
          <mxGeometry width="50" height="50" relative="1" as="geometry">
            <mxPoint x="122.08" y="294.96" as="sourcePoint" />
            <mxPoint x="419.99999999999983" y="185.03999999999994" as="targetPoint" />
          </mxGeometry>
        </mxCell>
      </root>
    </mxGraphModel>
  </diagram>
</mxfile>
